<?xml version="1.0" encoding="utf-8"?>
<!-- Generator: Adobe Illustrator 16.0.0, SVG Export Plug-In . SVG Version: 6.00 Build 0)  -->
<!DOCTYPE svg PUBLIC "-//W3C//DTD SVG 1.1//EN" "http://www.w3.org/Graphics/SVG/1.1/DTD/svg11.dtd">
<svg version="1.1" id="Layer_1" xmlns="http://www.w3.org/2000/svg" xmlns:xlink="http://www.w3.org/1999/xlink" x="0px" y="0px"
	 width="169.372px" height="34.864px" viewBox="0 0 169.372 34.864" enable-background="new 0 0 169.372 34.864"
	 xml:space="preserve">
<g>
	<path fill="#8BE4C2" d="M169.372,34.864c-10.585,0-15.684-8.197-20.182-15.432c-4.58-7.376-7.8-11.854-13.74-11.854
		c-5.939,0-9.149,4.479-13.729,11.857c-4.498,7.231-9.587,15.429-20.172,15.429c-10.572,0-15.661-8.197-20.15-15.432
		C76.824,12.056,73.617,7.578,67.69,7.578c-5.925,0-9.127,4.479-13.704,11.854c-4.487,7.234-9.572,15.432-20.143,15.432
		c-10.572,0-15.656-8.2-20.145-15.438C9.124,12.056,5.922,7.578,0,7.578V0c10.567,0,15.651,8.197,20.14,15.434
		c4.575,7.374,7.777,11.853,13.704,11.853c5.925,0,9.127-4.479,13.704-11.853C52.034,8.197,57.12,0,67.69,0
		c10.572,0,15.661,8.197,20.149,15.434c4.575,7.374,7.785,11.853,13.709,11.853c5.939,0,9.149-4.479,13.729-11.853
		C119.776,8.197,124.865,0,135.45,0c10.586,0,15.684,8.197,20.183,15.434c4.579,7.374,7.799,11.853,13.739,11.853V34.864z"/>
</g>
</svg>
